<svg width="199" height="35" viewBox="0 0 199 35" fill="none" xmlns="http://www.w3.org/2000/svg">
<rect width="19.3705" height="19.3705" transform="matrix(-0.466198 0.88468 -0.466198 -0.88468 18.061 17.1367)" fill="#1E42A6"/>
<rect width="19.3705" height="19.3705" transform="matrix(-0.466198 0.88468 -0.466198 -0.88468 29.8503 17.1367)" fill="#466EDE"/>
<path d="M38.8203 29V26.4365L41.0908 25.9971V10.6895L38.8203 10.25V7.67188H47.4189L53.2344 22.54H53.3223L58.9473 7.67188H67.5605V10.25L65.2754 10.6895V25.9971L67.5605 26.4365V29H58.7275V26.4365L61.1152 25.9971V21.9102L61.1885 12.2861L61.1006 12.2715L54.7285 28.707H51.4912L44.9727 12.4033L44.8848 12.418L45.1338 21.4707V25.9971L47.6533 26.4365V29H38.8203Z" fill="white"/>
<path d="M76.7744 29.3076C75.251 29.3076 73.9229 28.9756 72.79 28.3115C71.667 27.6377 70.793 26.7148 70.168 25.543C69.5527 24.3711 69.2451 23.0332 69.2451 21.5293V20.9434C69.2451 19.3711 69.5381 17.9795 70.124 16.7686C70.71 15.5479 71.5352 14.5908 72.5996 13.8975C73.6738 13.1943 74.9385 12.8477 76.3936 12.8574C78.5322 12.8574 80.168 13.4873 81.3008 14.7471C82.4336 15.9971 83 17.7549 83 20.0205V22.3496H73.6836L73.6543 22.4375C73.7324 23.4824 74.0791 24.3418 74.6943 25.0156C75.3096 25.6895 76.1836 26.0264 77.3164 26.0264C78.0977 26.0264 78.8252 25.9287 79.499 25.7334C80.1826 25.5283 80.8467 25.2305 81.4912 24.8398L82.6484 27.4766C81.9941 28.0039 81.1689 28.4434 80.1729 28.7949C79.1865 29.1367 78.0537 29.3076 76.7744 29.3076ZM73.7129 19.5225H79.001V19.1416C79.001 18.1846 78.8008 17.4277 78.4004 16.8711C78.0098 16.3047 77.3652 16.0215 76.4668 16.0215C75.6074 16.0215 74.9531 16.3486 74.5039 17.0029C74.0547 17.6475 73.7764 18.4629 73.6689 19.4492L73.7129 19.5225Z" fill="white"/>
<path d="M91.0713 29.3076C89.8115 29.3076 88.7275 28.9854 87.8193 28.3408C86.9209 27.6865 86.2324 26.7783 85.7539 25.6162C85.2754 24.4443 85.0361 23.0771 85.0361 21.5146V21.207C85.0361 19.5371 85.2754 18.0771 85.7539 16.8271C86.2422 15.5771 86.9355 14.6055 87.834 13.9121C88.7324 13.209 89.8066 12.8574 91.0566 12.8574C91.9355 12.8574 92.6973 13.0332 93.3418 13.3848C93.9961 13.7266 94.5625 14.2148 95.041 14.8496V9.16602L92.7559 8.72656V6.14844H99.3184V25.9971L101.369 26.4365V29H95.6123L95.29 27.0664C94.792 27.7988 94.1963 28.3555 93.5029 28.7363C92.8096 29.1172 91.999 29.3076 91.0713 29.3076ZM92.3457 25.9824C93.5273 25.9824 94.4258 25.4893 95.041 24.5029V17.7793C94.4258 16.7148 93.5371 16.1826 92.375 16.1826C91.3008 16.1826 90.5195 16.6465 90.0312 17.5742C89.5527 18.502 89.3135 19.7129 89.3135 21.207V21.5146C89.3135 22.9014 89.5479 23.9951 90.0166 24.7959C90.4854 25.5869 91.2617 25.9824 92.3457 25.9824Z" fill="white"/>
<path d="M102.6 29V26.4365L104.665 25.9971V16.168L102.38 15.7285V13.1504H108.942V25.9971L110.993 26.4365V29H102.6ZM104.519 9.7959V6.14844H108.942V9.7959H104.519Z" fill="white"/>
<path d="M119.152 29.3076C117.473 29.3076 116.159 28.7803 115.212 27.7256C114.265 26.6611 113.791 25.0107 113.791 22.7744V16.168L112.048 15.7285V13.1504H118.068V22.8037C118.068 23.9365 118.264 24.752 118.654 25.25C119.055 25.7383 119.655 25.9824 120.456 25.9824C121.735 25.9824 122.697 25.5039 123.342 24.5469V16.168L121.452 15.7285V13.1504H127.619V25.9971L129.523 26.4365V29H123.869L123.576 26.9932C122.531 28.5361 121.057 29.3076 119.152 29.3076Z" fill="white"/>
<path d="M130.959 29V26.4365L133.024 25.9971V16.168L130.739 15.7285V13.1504H136.994L137.17 15.2451C137.678 14.4834 138.312 13.8975 139.074 13.4873C139.846 13.0674 140.734 12.8574 141.74 12.8574C142.756 12.8574 143.625 13.082 144.348 13.5312C145.07 13.9805 145.617 14.6592 145.988 15.5674C146.477 14.7178 147.111 14.0537 147.893 13.5752C148.674 13.0967 149.592 12.8574 150.646 12.8574C152.209 12.8574 153.439 13.3896 154.338 14.4541C155.246 15.5186 155.7 17.1396 155.7 19.3174V25.9971L157.766 26.4365V29H149.577V26.4365L151.423 25.9971V19.3027C151.423 18.1406 151.228 17.3301 150.837 16.8711C150.456 16.4121 149.899 16.1826 149.167 16.1826C148.503 16.1826 147.941 16.373 147.482 16.7539C147.023 17.125 146.691 17.6182 146.486 18.2334V25.9971L148.215 26.4365V29H140.495V26.4365L142.224 25.9971V19.3027C142.224 18.1602 142.028 17.3545 141.638 16.8857C141.257 16.417 140.69 16.1826 139.938 16.1826C138.757 16.1826 137.873 16.6562 137.287 17.6035V25.9971L139.133 26.4365V29H130.959Z" fill="white"/>
<path d="M159.113 29V26.4365L161.384 25.9971V10.6895L159.113 10.25V7.67188H176.091V13.5166H172.81L172.619 10.9678H165.661V16.8418H173.132V20.1377H165.661V25.9971L167.946 26.4365V29H159.113Z" fill="white"/>
<path d="M177.365 29V26.4365L179.226 26.085L185.261 18.4385L179.577 10.6162L177.849 10.25V7.67188H186.184V10.25L184.147 10.4404L187.81 15.5674L191.472 10.4404L189.479 10.25V7.67188H197.697V10.25L195.808 10.6162L190.344 18.0576L196.467 26.0703L198.503 26.4365V29H189.963V26.4365L191.794 26.2607L187.839 20.8408L183.796 26.2607L185.583 26.4365V29H177.365Z" fill="white"/>
</svg>
